<mxfile host="app.diagrams.net" modified="2022-09-27T17:59:44.212Z" agent="5.0 (Windows)" etag="UBbhhdnIKTP2-Bq6NIrd" version="20.3.6" type="github">
  <diagram id="ga-sgr3PPKh_4a51wKOV" name="Page-1">
    <mxGraphModel dx="1418" dy="763" grid="1" gridSize="10" guides="1" tooltips="1" connect="1" arrows="1" fold="1" page="1" pageScale="1" pageWidth="827" pageHeight="1169" math="0" shadow="0">
      <root>
        <mxCell id="0" />
        <mxCell id="1" parent="0" />
        <mxCell id="rws3jVxYOCs86u8TmgI2-4" value="" style="edgeStyle=orthogonalEdgeStyle;rounded=0;orthogonalLoop=1;jettySize=auto;html=1;" parent="1" target="rws3jVxYOCs86u8TmgI2-2" edge="1">
          <mxGeometry relative="1" as="geometry">
            <mxPoint x="406" y="275" as="sourcePoint" />
          </mxGeometry>
        </mxCell>
        <mxCell id="rws3jVxYOCs86u8TmgI2-1" value="User input on mainSearchbar" style="rounded=1;whiteSpace=wrap;html=1;" parent="1" vertex="1">
          <mxGeometry x="346" y="215" width="120" height="60" as="geometry" />
        </mxCell>
        <mxCell id="rws3jVxYOCs86u8TmgI2-7" value="" style="edgeStyle=orthogonalEdgeStyle;rounded=0;orthogonalLoop=1;jettySize=auto;html=1;" parent="1" source="rws3jVxYOCs86u8TmgI2-2" target="rws3jVxYOCs86u8TmgI2-5" edge="1">
          <mxGeometry relative="1" as="geometry" />
        </mxCell>
        <mxCell id="rws3jVxYOCs86u8TmgI2-20" style="edgeStyle=orthogonalEdgeStyle;rounded=0;orthogonalLoop=1;jettySize=auto;html=1;entryX=0.5;entryY=0;entryDx=0;entryDy=0;" parent="1" source="rws3jVxYOCs86u8TmgI2-2" edge="1">
          <mxGeometry relative="1" as="geometry">
            <mxPoint x="105" y="545" as="targetPoint" />
          </mxGeometry>
        </mxCell>
        <mxCell id="rws3jVxYOCs86u8TmgI2-2" value="&lt;div&gt;REGEX &lt;br&gt;&lt;/div&gt;&lt;div&gt;validation&lt;/div&gt;" style="rhombus;whiteSpace=wrap;html=1;" parent="1" vertex="1">
          <mxGeometry x="360" y="325" width="92" height="90" as="geometry" />
        </mxCell>
        <mxCell id="rws3jVxYOCs86u8TmgI2-12" value="" style="edgeStyle=orthogonalEdgeStyle;rounded=0;orthogonalLoop=1;jettySize=auto;html=1;" parent="1" source="rws3jVxYOCs86u8TmgI2-5" target="rws3jVxYOCs86u8TmgI2-8" edge="1">
          <mxGeometry relative="1" as="geometry" />
        </mxCell>
        <mxCell id="rws3jVxYOCs86u8TmgI2-27" style="edgeStyle=orthogonalEdgeStyle;rounded=0;orthogonalLoop=1;jettySize=auto;html=1;entryX=0.5;entryY=0;entryDx=0;entryDy=0;" parent="1" source="rws3jVxYOCs86u8TmgI2-5" target="rws3jVxYOCs86u8TmgI2-26" edge="1">
          <mxGeometry relative="1" as="geometry" />
        </mxCell>
        <mxCell id="rws3jVxYOCs86u8TmgI2-5" value="match one item in ingredientsList" style="rounded=0;whiteSpace=wrap;html=1;" parent="1" vertex="1">
          <mxGeometry x="346" y="485" width="120" height="60" as="geometry" />
        </mxCell>
        <mxCell id="rws3jVxYOCs86u8TmgI2-17" value="" style="edgeStyle=orthogonalEdgeStyle;rounded=0;orthogonalLoop=1;jettySize=auto;html=1;" parent="1" source="rws3jVxYOCs86u8TmgI2-8" target="rws3jVxYOCs86u8TmgI2-16" edge="1">
          <mxGeometry relative="1" as="geometry" />
        </mxCell>
        <mxCell id="rws3jVxYOCs86u8TmgI2-28" style="edgeStyle=orthogonalEdgeStyle;rounded=0;orthogonalLoop=1;jettySize=auto;html=1;exitX=1;exitY=0.5;exitDx=0;exitDy=0;" parent="1" source="rws3jVxYOCs86u8TmgI2-8" target="rws3jVxYOCs86u8TmgI2-26" edge="1">
          <mxGeometry relative="1" as="geometry" />
        </mxCell>
        <mxCell id="rws3jVxYOCs86u8TmgI2-8" value="match one item in directions" style="rounded=0;whiteSpace=wrap;html=1;" parent="1" vertex="1">
          <mxGeometry x="346" y="615" width="120" height="60" as="geometry" />
        </mxCell>
        <mxCell id="rws3jVxYOCs86u8TmgI2-14" value="FALSE" style="text;html=1;strokeColor=none;fillColor=none;align=center;verticalAlign=middle;whiteSpace=wrap;rounded=0;" parent="1" vertex="1">
          <mxGeometry x="346" y="565" width="60" height="30" as="geometry" />
        </mxCell>
        <mxCell id="rws3jVxYOCs86u8TmgI2-21" style="edgeStyle=orthogonalEdgeStyle;rounded=0;orthogonalLoop=1;jettySize=auto;html=1;entryX=0.5;entryY=1;entryDx=0;entryDy=0;" parent="1" source="rws3jVxYOCs86u8TmgI2-16" edge="1">
          <mxGeometry relative="1" as="geometry">
            <mxPoint x="105" y="605" as="targetPoint" />
          </mxGeometry>
        </mxCell>
        <mxCell id="rws3jVxYOCs86u8TmgI2-29" style="edgeStyle=orthogonalEdgeStyle;rounded=0;orthogonalLoop=1;jettySize=auto;html=1;exitX=1;exitY=0.5;exitDx=0;exitDy=0;entryX=0.5;entryY=1;entryDx=0;entryDy=0;" parent="1" source="rws3jVxYOCs86u8TmgI2-16" target="rws3jVxYOCs86u8TmgI2-26" edge="1">
          <mxGeometry relative="1" as="geometry" />
        </mxCell>
        <mxCell id="rws3jVxYOCs86u8TmgI2-16" value="match one item in name" style="rounded=0;whiteSpace=wrap;html=1;" parent="1" vertex="1">
          <mxGeometry x="346" y="745" width="120" height="60" as="geometry" />
        </mxCell>
        <mxCell id="rws3jVxYOCs86u8TmgI2-18" value="FALSE" style="text;html=1;strokeColor=none;fillColor=none;align=center;verticalAlign=middle;whiteSpace=wrap;rounded=0;" parent="1" vertex="1">
          <mxGeometry x="346" y="695" width="60" height="30" as="geometry" />
        </mxCell>
        <mxCell id="LoJJO0c_ScXFvc4OFsKD-8" style="edgeStyle=orthogonalEdgeStyle;rounded=0;orthogonalLoop=1;jettySize=auto;html=1;exitX=0;exitY=0.5;exitDx=0;exitDy=0;entryX=0;entryY=0.5;entryDx=0;entryDy=0;" edge="1" parent="1" source="rws3jVxYOCs86u8TmgI2-19" target="rws3jVxYOCs86u8TmgI2-1">
          <mxGeometry relative="1" as="geometry">
            <mxPoint x="15" y="245" as="targetPoint" />
          </mxGeometry>
        </mxCell>
        <mxCell id="rws3jVxYOCs86u8TmgI2-19" value="noRecipeMessage()" style="rounded=1;whiteSpace=wrap;html=1;" parent="1" vertex="1">
          <mxGeometry x="35" y="545" width="130" height="60" as="geometry" />
        </mxCell>
        <mxCell id="rws3jVxYOCs86u8TmgI2-22" value="FALSE" style="text;html=1;strokeColor=none;fillColor=none;align=center;verticalAlign=middle;whiteSpace=wrap;rounded=0;" parent="1" vertex="1">
          <mxGeometry x="202" y="730" width="60" height="30" as="geometry" />
        </mxCell>
        <mxCell id="rws3jVxYOCs86u8TmgI2-23" value="FALSE" style="text;html=1;strokeColor=none;fillColor=none;align=center;verticalAlign=middle;whiteSpace=wrap;rounded=0;" parent="1" vertex="1">
          <mxGeometry x="202" y="335" width="60" height="30" as="geometry" />
        </mxCell>
        <mxCell id="rws3jVxYOCs86u8TmgI2-24" value="TRUE" style="text;html=1;strokeColor=none;fillColor=none;align=center;verticalAlign=middle;whiteSpace=wrap;rounded=0;" parent="1" vertex="1">
          <mxGeometry x="528" y="475" width="60" height="30" as="geometry" />
        </mxCell>
        <mxCell id="LoJJO0c_ScXFvc4OFsKD-7" style="edgeStyle=orthogonalEdgeStyle;rounded=0;orthogonalLoop=1;jettySize=auto;html=1;exitX=1;exitY=0.5;exitDx=0;exitDy=0;entryX=1;entryY=0.5;entryDx=0;entryDy=0;" edge="1" parent="1" source="rws3jVxYOCs86u8TmgI2-26" target="LoJJO0c_ScXFvc4OFsKD-6">
          <mxGeometry relative="1" as="geometry">
            <mxPoint x="822" y="925" as="targetPoint" />
          </mxGeometry>
        </mxCell>
        <mxCell id="rws3jVxYOCs86u8TmgI2-26" value="&lt;div&gt;update state object main and &lt;br&gt;&lt;/div&gt;&lt;div&gt;return a new recipe array &lt;br&gt;&lt;/div&gt;" style="rounded=1;whiteSpace=wrap;html=1;" parent="1" vertex="1">
          <mxGeometry x="632" y="610" width="160" height="70" as="geometry" />
        </mxCell>
        <mxCell id="LoJJO0c_ScXFvc4OFsKD-1" value="TRUE" style="text;html=1;strokeColor=none;fillColor=none;align=center;verticalAlign=middle;whiteSpace=wrap;rounded=0;" vertex="1" parent="1">
          <mxGeometry x="356" y="445" width="60" height="30" as="geometry" />
        </mxCell>
        <mxCell id="LoJJO0c_ScXFvc4OFsKD-2" value="TRUE" style="text;html=1;strokeColor=none;fillColor=none;align=center;verticalAlign=middle;whiteSpace=wrap;rounded=0;" vertex="1" parent="1">
          <mxGeometry x="528" y="610" width="60" height="30" as="geometry" />
        </mxCell>
        <mxCell id="LoJJO0c_ScXFvc4OFsKD-3" value="TRUE" style="text;html=1;strokeColor=none;fillColor=none;align=center;verticalAlign=middle;whiteSpace=wrap;rounded=0;" vertex="1" parent="1">
          <mxGeometry x="528" y="730" width="60" height="30" as="geometry" />
        </mxCell>
        <mxCell id="LoJJO0c_ScXFvc4OFsKD-6" value="&lt;div&gt;display new recipes card&lt;/div&gt;&lt;div&gt;and&lt;/div&gt;&lt;div&gt;display new dropDowns lists of item&lt;br&gt;&lt;/div&gt;" style="rounded=1;whiteSpace=wrap;html=1;" vertex="1" parent="1">
          <mxGeometry x="293" y="885" width="226" height="70" as="geometry" />
        </mxCell>
      </root>
    </mxGraphModel>
  </diagram>
</mxfile>
